<svg xmlns="http://www.w3.org/2000/svg" viewBox="0 0 400 400" width="400" height="400">
  <defs>
    <linearGradient id="gradient1" x1="0%" y1="0%" x2="100%" y2="100%">
      <stop offset="0%" style="stop-color:#667eea;stop-opacity:1" />
      <stop offset="100%" style="stop-color:#764ba2;stop-opacity:1" />
    </linearGradient>
    <linearGradient id="gradient2" x1="0%" y1="0%" x2="100%" y2="100%">
      <stop offset="0%" style="stop-color:#f093fb;stop-opacity:1" />
      <stop offset="100%" style="stop-color:#f5576c;stop-opacity:1" />
    </linearGradient>
  </defs>

  <!-- Document/Spec background -->
  <rect x="50" y="50" width="300" height="380" rx="10" fill="#f7fafc" stroke="#e2e8f0" stroke-width="2"/>

  <!-- Header section -->
  <rect x="50" y="50" width="300" height="60" rx="10" fill="url(#gradient1)"/>

  <!-- Spec title line -->
  <rect x="70" y="75" width="180" height="10" rx="5" fill="white" opacity="0.9"/>
  <rect x="70" y="95" width="120" height="8" rx="4" fill="white" opacity="0.7"/>

  <!-- Checklist items -->
  <circle cx="80" cy="150" r="8" fill="#10b981"/>
  <path d="M76 150 L79 153 L85 147" stroke="white" stroke-width="2" fill="none" stroke-linecap="round"/>
  <rect x="100" y="145" width="160" height="10" rx="5" fill="#e2e8f0"/>

  <circle cx="80" cy="190" r="8" fill="#10b981"/>
  <path d="M76 190 L79 193 L85 187" stroke="white" stroke-width="2" fill="none" stroke-linecap="round"/>
  <rect x="100" y="185" width="140" height="10" rx="5" fill="#e2e8f0"/>

  <circle cx="80" cy="230" r="8" fill="#f59e0b"/>
  <rect x="100" y="225" width="150" height="10" rx="5" fill="#e2e8f0"/>

  <!-- Code section -->
  <rect x="70" y="270" width="260" height="120" rx="5" fill="#1a202c" opacity="0.1"/>
  <rect x="70" y="270" width="260" height="120" rx="5" fill="url(#gradient2)" opacity="0.1"/>

  <!-- Code lines -->
  <rect x="80" y="285" width="60" height="4" rx="2" fill="#667eea"/>
  <rect x="145" y="285" width="40" height="4" rx="2" fill="#764ba2"/>
  <rect x="80" y="295" width="100" height="4" rx="2" fill="#667eea"/>

  <rect x="90" y="310" width="80" height="4" rx="2" fill="#10b981"/>
  <rect x="90" y="320" width="120" height="4" rx="2" fill="#10b981"/>

  <rect x="80" y="335" width="90" height="4" rx="2" fill="#f59e0b"/>
  <rect x="80" y="345" width="70" height="4" rx="2" fill="#f59e0b"/>

  <!-- Implementation arrow -->
  <path d="M 350 250 Q 380 250 380 280 L 380 350 Q 380 380 350 380" stroke="#667eea" stroke-width="3" fill="none"/>
  <polygon points="375,350 385,350 380,365" fill="#667eea"/>
</svg>